<?xml version="1.0" encoding="UTF-8"?>
<svg id="Layer_1" data-name="Layer 1" xmlns="http://www.w3.org/2000/svg" viewBox="0 0 32 32">
  <defs>
    <style>
      .cls-1 {
        fill: #fff;
      }

      .cls-2 {
        fill: #0f4665;
        font-family: MyriadConceptRoman-Regular, 'Myriad Variable Concept';
        font-size: .98px;
        font-variation-settings: 'wght' 400, 'wdth' 100;
      }

      .cls-3 {
        fill: #04334e;
      }

      .cls-4 {
        fill: #043551;
      }

      .cls-5 {
        fill: #042b42;
      }

      .cls-6 {
        fill: #07c1bc;
      }
    </style>
  </defs>
  <path class="cls-6" d="M21.68,7.34c.45.35.81.89,1.02,1.42.73,1.82.21,3.75-.42,5.51l-1.05-.47c-.2.69-1.14.61-1.73.71-.27.05-.54.15-.81.18.08-.19.27-.3.39-.49.1-.15.17-.32.24-.48l1.67.03c.27-1.21.49-3.47-.48-4.41-1.32-1.27-2.87.37-4.33.47s-1.86-.59-3.02-.88c-2.06-.52-2.54,1.54-2.42,3.12.07.94.46,1.82.74,2.71-.23.07-.46.24-.69.3s-.46.03-.66.16c-.06,0-.08-.04-.11-.07-.14-.18-.33-.72-.41-.95-.64-1.74-1.19-4.19-.25-5.91.66-1.22,1.79-1.69,3.16-1.55,1.14.11,1.98,1.21,3.13,1.28,1.56.1,2.36-1.17,3.75-1.29.85-.07,1.63.07,2.31.6Z"/>
  <path class="cls-6" d="M27.56,17.67c-.04.06-.22.07-.29.08-1.72.11-3.52.05-5.23.19-.93.08-.99.95-1.27,1.66.22.28.47.52.57.88.2.69-.06,1.38-.6,1.83-.1.09-.52.3-.57.39-.13.19-.28.82-.42,1.1-.22.48-.77,1.48-1.38,1.47-.48,0-.43-.58-.36-.91.08-.36.21-.7.28-1.08.06-.34.09-.69.14-1.03-.68-.49-.81-1.43-.38-2.15s1.18-1.01,2.02-.92c-.05-.1-.22-.14-.33-.16-.51-.06-.95.1-1.42.27.03-.31-.13-.87-.37-1.09-.45-.41-1.68-.22-2.27-.27-.29.09-.62,0-.91.07-.48.12-.58,1.06-.7,1.1-.86-.04-1.8.08-2.65,0-.4-.03-.31-.25-.45-.56-.28-.59-.65-.62-1.26-.65-1.26-.06-2.53-.04-3.79-.11-.34-.02-.69-.05-1.03-.1,0-.02.25-.06.29-.06,1.02-.07,2.1-.05,3.13-.07,6.11-.13,12.28-.08,18.38.12.29,0,.59-.01.88,0ZM20.75,20.29c-.07-.06-.16-.1-.26-.09,1.06,1.61-1.42,2.79-2.07,1.05-.19-.02.01.34.05.4.72,1.24,3.09.23,2.44-1.15-.02-.05-.12-.19-.15-.22Z"/>
  <path class="cls-6" d="M10.97,17.08c-.37-.8.07-1.94,1-2.06.33-.04.74.16.74-.32-.97-.29-.68-.79-.08-1.28.5-.41,1.21-.73,1.85-.82.08.43-.38.41-.68.55-.33.16-.63.4-.57.81.43-.13.76-.36,1.21-.49.35-.1.67-.05.95-.34.46-.46.58-1.31,1.45-1.29.4.01,1.22.61,1.55.87.39.31.75.55.59,1.12-.2.7-1.25.79-1.7,1.14-.04.03-.08.04-.06.11l1,.86.21-.25-.47-.49.46-.23.38.33c1.27-.71,2.76.37,2.19,1.77h-.6c.34-.86-.25-1.7-1.17-1.31.09.13.79.7.7.84l-.37.12-.7-.7-.12.16-1.67.03c-.27-.3-1.05-.85-1-1.29.05-.38.8-.67,1.08-.87l1.05-.49-1.17.14c-.14-.03-.56-.6-.6-.76-.23.25-.39.69-.71.85-.42.2-1.5.14-2.02.21-.15.02-.3.06-.45.08l.08.19h2.77c-.03.16-.22.24-.31.38-.23.37-.12.65.13.95.1.13.95.97,1.03,1l1.72-.04.14.49-.04.08h-3.28c-.26,0-.53-.44-.7-.62-.05-.06-.46-.42-.41-.47l1.44-.16-1.73-.17c-.35-.24-.57-.68-.98-.85l-.12.31c.68.41.98,1.15.68,1.9-.09,0-.53.04-.54-.05.16-.32.16-.72,0-1.05-.04-.08-.24-.37-.34-.3-.02.14-.17.37-.19.49-.01.08.05.14.02.25-.07.24-.46.4-.61.14-.16-.27.18-.48.28-.7.04-.09.07-.2.09-.3.01-.05.04-.05-.04-.04-.82.06-1.14.87-.76,1.56h-.59Z"/>
  <path class="cls-6" d="M11.08,19.34c.09.28.16.56.24.85h4.56s.04,2.51.04,2.51c.28-.07.63-.05.92,0l.06-.05v-2.4l.58-.02.7-.88h-7.1ZM13.87,20.39h-1.25l.41,2.51c-.06,0-.05-.07-.07-.11-.3-.75-.41-1.61-.57-2.4h-1.03c.18.72.36,1.45.59,2.16.25.75,1,2.73,1.95,2.72.62,0,.2-.97.13-1.29-.25-1.18-.3-2.39-.17-3.59Z"/>
  <path class="cls-5" d="M26.07,21.84h2.22l-.41.86h-2.69l-.06-.06v-2.38c-.18-.14-.48-.02-.68-.02-.55.02-1.11-.01-1.66,0v.47h1.99l-.51.84s-.05-.02-.06-.02h-1.37l-.06.06v1.11h-.94l.02-3.35h4.18l.06.06v2.38s-.05.03-.04.06Z"/>
  <path class="cls-5" d="M3.82,19.34h3.63s-.48.85-.48.85l-2.11.02-.11.05.1.44h1.83s.04-.08.1.02l-.39.76h-1.64l.07.35h2.03c.13.29.37.56.44.86h-3.47v-3.35Z"/>
  <path class="cls-5" d="M7.65,19.3l.78.06c.47.49.94.98,1.39,1.49.02.03,0,.07.09.05v-1.56h.98l.04,3.35h-.6c-.06,0-.73-.8-.84-.92-.28-.29-.57-.57-.86-.84v1.76l-.98-.04v-3.35Z"/>
  <path class="cls-5" d="M1.74,19.3c2.37.2,2.12,3.39-.04,3.39H0v-3.39c.56.03,1.18-.05,1.74,0ZM.98,21.84h.8s.26-.09.31-.12c.49-.3.49-1.14-.02-1.42-.04-.02-.19-.1-.21-.1h-.88v1.64Z"/>
  <path class="cls-5" d="M29.18,19.34c.19.04.82,1.29.9,1.29l.8-1.22s.08-.07.1-.07h1.07c.01.06-.02.09-.05.13-.17.3-1.44,1.95-1.44,2.07v1.11h-.98v-1.15c0-.13-1.31-1.75-1.48-2.03-.03-.05-.05-.08-.04-.14h1.11Z"/>
  <path class="cls-6" d="M26.77,14.82l-1,.12c-1.61,0-3.64.43-5.19,0-.05-.01-.12,0-.13-.08l1.03-.08,5.29.04Z"/>
  <path class="cls-6" d="M15.33,10.93c.73-.15,1.12.66.57,1.12-.51.42-1.1.04-1.02-.6.03-.21.24-.48.45-.52Z"/>
  <path class="cls-6" d="M25.68,15.64c0,.06-.16.07-.21.08-.6.07-1.27.12-1.87.16s-1.35.09-1.91.04c-.23-.02-.3-.13-.41-.31l4.41.04Z"/>
  <polygon class="cls-6" points="24.71 16.42 21.68 16.73 21.62 16.71 21.54 16.36 24.71 16.42"/>
  <path class="cls-6" d="M10.38,16.73l.04.27-3.08-.08c-.03-.1.08-.09.15-.1.91-.19,1.96-.04,2.89-.09Z"/>
  <path class="cls-6" d="M8.9,16.42c0-.06.07-.05.12-.06.28-.07.94-.24,1.2-.24.16,0,.29.12.19.26-.05.07-.65.03-.78.03-.23,0-.48.1-.72,0Z"/>
  <path class="cls-6" d="M14.64,17.08h-.59c.06-.22.13-.43.14-.66.16,0,.38.53.45.66Z"/>
  <path class="cls-6" d="M10.54,15.64c0,.16-.35.08-.47.12,0-.1,0-.06.06-.08.13-.02.28-.04.41-.04Z"/>
  <text class="cls-2" transform="translate(5.84 24.55)"><tspan x="0" y="0">DENTAL</tspan></text>
  <text class="cls-2" transform="translate(20.88 24.55)"><tspan x="0" y="0">SUPPLIES</tspan></text>
  <polygon class="cls-4" points="18.19 19.34 17.48 20.22 16.9 20.24 16.9 22.7 15.92 22.7 15.89 20.2 11.32 20.19 11.08 19.34 18.19 19.34"/>
  <ellipse class="cls-3" cx="19.69" cy="20.99" rx="1.91" ry="1.78"/>
  <path class="cls-1" d="M20.51,20.23c-.22.21.26.77.1,1.24-.06.16-.21.38-.68.55-.12.04-.37.11-.68.03-.55-.15-.78-.66-.81-.73-.02-.02-.08-.07-.1-.06-.03.02.02.17.03.17.04.1.11.27.25.42.46.49,1.16.37,1.19.36.28-.05.46-.18.58-.26.16-.12.57-.4.63-.87.06-.41-.15-.89-.37-.91-.08,0-.14.05-.14.05Z"/>
</svg>